# xmcd
#
# Track frame offsets:
#	150
#	20019
#	37576
#	55099
#	77848
#	93819
#	114417
#	136609
#	151346
#	169897
#	190285
#	211724
#	232298
#	250456
#	270632
#	291258
#
# Disc length: 4087 seconds
#
# Revision: 2
# Processed by: cddbd v1.5.2PL0 Copyright (c) Steve Scherf et al.
# Submitted via: EasyCDDAExtractor 15.2.0.1
#
DISCID=d40ff510
DTITLE=José Augusto - Fantasias
DYEAR=2004
DGENRE=Country
TTITLE0=Fantasias
TTITLE1=Sonho por sonho
TTITLE2=Lua e Flor
TTITLE3=La minha historia
TTITLE4=Indiferenca
TTITLE5=Evidencias - Part. Esp.: Roberta Miranda
TTITLE6=Aguenta coracao
TTITLE7=Casinha Branca
TTITLE8=Me esqueci de viver
TTITLE9=O sole mio
TTITLE10=Chuvas de verao
TTITLE11=Fui eu
TTITLE12=Eu e voce
TTITLE13=Quase um sonho - Part. Esp.: Dionne Warwick
TTITLE14=Por eu ter me machucado
TTITLE15=Luzes da Ribalta
EXTD=
EXTT0=
EXTT1=
EXTT2=
EXTT3=
EXTT4=
EXTT5=
EXTT6=
EXTT7=
EXTT8=
EXTT9=
EXTT10=
EXTT11=
EXTT12=
EXTT13=
EXTT14=
EXTT15=
PLAYORDER=
